<?xml version="1.0" encoding="us-ascii" standalone="no"?><svg xmlns="http://www.w3.org/2000/svg" xmlns:xlink="http://www.w3.org/1999/xlink" contentStyleType="text/css" height="456px" preserveAspectRatio="none" style="width:1176px;height:456px;background:#FFFFFF;" version="1.1" viewBox="0 0 1176 456" width="1176px" zoomAndPan="magnify"><defs/><g><text fill="#000000" font-family="sans-serif" font-size="14" font-weight="bold" lengthAdjust="spacing" textLength="47" x="557.5" y="22.9951">tshop</text><!--class produit_moyen_paiement--><g id="elem_produit_moyen_paiement"><rect codeLine="7" fill="#F1F1F1" height="74.8906" id="produit_moyen_paiement" rx="2.5" ry="2.5" style="stroke:#181818;stroke-width:0.5;" width="234" x="439" y="101.2969"/><text fill="#000000" font-family="sans-serif" font-size="14" lengthAdjust="spacing" textLength="186" x="463" y="119.292">produit_moyen_paiement</text><line style="stroke:#181818;stroke-width:0.5;" x1="440" x2="672" y1="127.5938" y2="127.5938"/><ellipse cx="450" cy="141.2422" fill="#000000" rx="3" ry="3" style="stroke:#000000;stroke-width:1.0;"/><text fill="#000000" font-family="sans-serif" font-size="14" lengthAdjust="spacing" textLength="135" x="459" y="144.5889">produit_id: integer</text><ellipse cx="450" cy="157.5391" fill="#000000" rx="3" ry="3" style="stroke:#000000;stroke-width:1.0;"/><text fill="#000000" font-family="sans-serif" font-size="14" lengthAdjust="spacing" textLength="208" x="459" y="160.8857">moyen_paiement_id: integer</text><line style="stroke:#181818;stroke-width:1.0;" x1="440" x2="672" y1="168.1875" y2="168.1875"/></g><!--class moyen_paiement--><g id="elem_moyen_paiement"><rect codeLine="12" fill="#F1F1F1" height="74.8906" id="moyen_paiement" rx="2.5" ry="2.5" style="stroke:#181818;stroke-width:0.5;" width="150" x="465" y="333.7969"/><text fill="#000000" font-family="sans-serif" font-size="14" lengthAdjust="spacing" textLength="126" x="477" y="351.792">moyen_paiement</text><line style="stroke:#181818;stroke-width:0.5;" x1="466" x2="614" y1="360.0938" y2="360.0938"/><ellipse cx="476" cy="373.7422" fill="#000000" rx="3" ry="3" style="stroke:#000000;stroke-width:1.0;"/><text fill="#000000" font-family="sans-serif" font-size="14" lengthAdjust="spacing" textLength="75" x="485" y="377.0889">id: integer</text><line style="stroke:#181818;stroke-width:1.0;" x1="466" x2="614" y1="384.3906" y2="384.3906"/><ellipse cx="476" cy="398.0391" fill="#000000" rx="3" ry="3" style="stroke:#000000;stroke-width:1.0;"/><text fill="#000000" font-family="sans-serif" font-size="14" lengthAdjust="spacing" textLength="94" x="485" y="401.3857">valeur: string</text></g><!--class doctrine_migration_versions--><g id="elem_doctrine_migration_versions"><rect codeLine="17" fill="#F1F1F1" height="91.1875" id="doctrine_migration_versions" rx="2.5" ry="2.5" style="stroke:#181818;stroke-width:0.5;" width="210" x="7" y="93.2969"/><text fill="#000000" font-family="sans-serif" font-size="14" lengthAdjust="spacing" textLength="204" x="10" y="111.292">doctrine_migration_versions</text><line style="stroke:#181818;stroke-width:0.5;" x1="8" x2="216" y1="119.5938" y2="119.5938"/><ellipse cx="18" cy="133.2422" fill="#000000" rx="3" ry="3" style="stroke:#000000;stroke-width:1.0;"/><text fill="#000000" font-family="sans-serif" font-size="14" lengthAdjust="spacing" textLength="103" x="27" y="136.5889">version: string</text><line style="stroke:#181818;stroke-width:1.0;" x1="8" x2="216" y1="143.8906" y2="143.8906"/><text fill="#000000" font-family="sans-serif" font-size="14" lengthAdjust="spacing" textLength="165" x="13" y="160.8857">executed_at: datetime</text><text fill="#000000" font-family="sans-serif" font-size="14" lengthAdjust="spacing" textLength="174" x="13" y="177.1826">execution_time: integer</text></g><!--class produit_couleur--><g id="elem_produit_couleur"><rect codeLine="23" fill="#F1F1F1" height="74.8906" id="produit_couleur" rx="2.5" ry="2.5" style="stroke:#181818;stroke-width:0.5;" width="161" x="739.5" y="101.2969"/><text fill="#000000" font-family="sans-serif" font-size="14" lengthAdjust="spacing" textLength="112" x="764" y="119.292">produit_couleur</text><line style="stroke:#181818;stroke-width:0.5;" x1="740.5" x2="899.5" y1="127.5938" y2="127.5938"/><ellipse cx="750.5" cy="141.2422" fill="#000000" rx="3" ry="3" style="stroke:#000000;stroke-width:1.0;"/><text fill="#000000" font-family="sans-serif" font-size="14" lengthAdjust="spacing" textLength="135" x="759.5" y="144.5889">produit_id: integer</text><ellipse cx="750.5" cy="157.5391" fill="#000000" rx="3" ry="3" style="stroke:#000000;stroke-width:1.0;"/><text fill="#000000" font-family="sans-serif" font-size="14" lengthAdjust="spacing" textLength="134" x="759.5" y="160.8857">couleur_id: integer</text><line style="stroke:#181818;stroke-width:1.0;" x1="740.5" x2="899.5" y1="168.1875" y2="168.1875"/></g><!--class couleur--><g id="elem_couleur"><rect codeLine="28" fill="#F1F1F1" height="74.8906" id="couleur" rx="2.5" ry="2.5" style="stroke:#181818;stroke-width:0.5;" width="150" x="835" y="333.7969"/><text fill="#000000" font-family="sans-serif" font-size="14" lengthAdjust="spacing" textLength="52" x="884" y="351.792">couleur</text><line style="stroke:#181818;stroke-width:0.5;" x1="836" x2="984" y1="360.0938" y2="360.0938"/><ellipse cx="846" cy="373.7422" fill="#000000" rx="3" ry="3" style="stroke:#000000;stroke-width:1.0;"/><text fill="#000000" font-family="sans-serif" font-size="14" lengthAdjust="spacing" textLength="75" x="855" y="377.0889">id: integer</text><line style="stroke:#181818;stroke-width:1.0;" x1="836" x2="984" y1="384.3906" y2="384.3906"/><ellipse cx="846" cy="398.0391" fill="#000000" rx="3" ry="3" style="stroke:#000000;stroke-width:1.0;"/><text fill="#000000" font-family="sans-serif" font-size="14" lengthAdjust="spacing" textLength="94" x="855" y="401.3857">valeur: string</text></g><!--class client--><g id="elem_client"><rect codeLine="33" fill="#F1F1F1" height="188.9688" id="client" rx="2.5" ry="2.5" style="stroke:#181818;stroke-width:0.5;" width="152" x="252" y="44.2969"/><text fill="#000000" font-family="sans-serif" font-size="14" lengthAdjust="spacing" textLength="41" x="307.5" y="62.292">client</text><line style="stroke:#181818;stroke-width:0.5;" x1="253" x2="403" y1="70.5938" y2="70.5938"/><ellipse cx="263" cy="84.2422" fill="#000000" rx="3" ry="3" style="stroke:#000000;stroke-width:1.0;"/><text fill="#000000" font-family="sans-serif" font-size="14" lengthAdjust="spacing" textLength="75" x="272" y="87.5889">id: integer</text><line style="stroke:#181818;stroke-width:1.0;" x1="253" x2="403" y1="94.8906" y2="94.8906"/><ellipse cx="263" cy="108.5391" fill="#000000" rx="3" ry="3" style="stroke:#000000;stroke-width:1.0;"/><text fill="#000000" font-family="sans-serif" font-size="14" lengthAdjust="spacing" textLength="90" x="272" y="111.8857">email: string</text><ellipse cx="263" cy="124.8359" fill="#000000" rx="3" ry="3" style="stroke:#000000;stroke-width:1.0;"/><text fill="#000000" font-family="sans-serif" font-size="14" lengthAdjust="spacing" textLength="73" x="272" y="128.1826">roles: json</text><ellipse cx="263" cy="141.1328" fill="#000000" rx="3" ry="3" style="stroke:#000000;stroke-width:1.0;"/><text fill="#000000" font-family="sans-serif" font-size="14" lengthAdjust="spacing" textLength="118" x="272" y="144.4795">password: string</text><ellipse cx="263" cy="157.4297" fill="#000000" rx="3" ry="3" style="stroke:#000000;stroke-width:1.0;"/><text fill="#000000" font-family="sans-serif" font-size="14" lengthAdjust="spacing" textLength="83" x="272" y="160.7764">nom: string</text><ellipse cx="263" cy="173.7266" fill="#000000" rx="3" ry="3" style="stroke:#000000;stroke-width:1.0;"/><text fill="#000000" font-family="sans-serif" font-size="14" lengthAdjust="spacing" textLength="108" x="272" y="177.0732">prenom: string</text><ellipse cx="263" cy="190.0234" fill="#000000" rx="3" ry="3" style="stroke:#000000;stroke-width:1.0;"/><text fill="#000000" font-family="sans-serif" font-size="14" lengthAdjust="spacing" textLength="88" x="272" y="193.3701">age: integer</text><ellipse cx="263" cy="206.3203" fill="#000000" rx="3" ry="3" style="stroke:#000000;stroke-width:1.0;"/><text fill="#000000" font-family="sans-serif" font-size="14" lengthAdjust="spacing" textLength="106" x="272" y="209.667">adresse: string</text><ellipse cx="263" cy="222.6172" fill="#000000" rx="3" ry="3" style="stroke:#000000;stroke-width:1.0;"/><text fill="#000000" font-family="sans-serif" font-size="14" lengthAdjust="spacing" textLength="126" x="272" y="225.9639">telephone: string</text></g><!--class produit--><g id="elem_produit"><rect codeLine="45" fill="#F1F1F1" height="140.0781" id="produit" rx="2.5" ry="2.5" style="stroke:#181818;stroke-width:0.5;" width="150" x="650" y="301.2969"/><text fill="#000000" font-family="sans-serif" font-size="14" lengthAdjust="spacing" textLength="53" x="698.5" y="319.292">produit</text><line style="stroke:#181818;stroke-width:0.5;" x1="651" x2="799" y1="327.5938" y2="327.5938"/><ellipse cx="661" cy="341.2422" fill="#000000" rx="3" ry="3" style="stroke:#000000;stroke-width:1.0;"/><text fill="#000000" font-family="sans-serif" font-size="14" lengthAdjust="spacing" textLength="75" x="670" y="344.5889">id: integer</text><line style="stroke:#181818;stroke-width:1.0;" x1="651" x2="799" y1="351.8906" y2="351.8906"/><ellipse cx="661" cy="365.5391" fill="#000000" rx="3" ry="3" style="stroke:#000000;stroke-width:1.0;"/><text fill="#000000" font-family="sans-serif" font-size="14" lengthAdjust="spacing" textLength="83" x="670" y="368.8857">nom: string</text><ellipse cx="661" cy="381.8359" fill="#000000" rx="3" ry="3" style="stroke:#000000;stroke-width:1.0;"/><text fill="#000000" font-family="sans-serif" font-size="14" lengthAdjust="spacing" textLength="93" x="670" y="385.1826">prix: decimal</text><ellipse cx="661" cy="398.1328" fill="#000000" rx="3" ry="3" style="stroke:#000000;stroke-width:1.0;"/><text fill="#000000" font-family="sans-serif" font-size="14" lengthAdjust="spacing" textLength="122" x="670" y="401.4795">description: text</text><ellipse cx="661" cy="414.4297" fill="#000000" rx="3" ry="3" style="stroke:#000000;stroke-width:1.0;"/><text fill="#000000" font-family="sans-serif" font-size="14" lengthAdjust="spacing" textLength="111" x="670" y="417.7764">online: boolean</text><ellipse cx="661" cy="430.7266" fill="#000000" rx="3" ry="3" style="stroke:#000000;stroke-width:1.0;"/><text fill="#000000" font-family="sans-serif" font-size="14" lengthAdjust="spacing" textLength="95" x="670" y="434.0732">image: string</text></g><!--class produit_taille--><g id="elem_produit_taille"><rect codeLine="54" fill="#F1F1F1" height="74.8906" id="produit_taille" rx="2.5" ry="2.5" style="stroke:#181818;stroke-width:0.5;" width="161" x="951.5" y="101.2969"/><text fill="#000000" font-family="sans-serif" font-size="14" lengthAdjust="spacing" textLength="96" x="984" y="119.292">produit_taille</text><line style="stroke:#181818;stroke-width:0.5;" x1="952.5" x2="1111.5" y1="127.5938" y2="127.5938"/><ellipse cx="962.5" cy="141.2422" fill="#000000" rx="3" ry="3" style="stroke:#000000;stroke-width:1.0;"/><text fill="#000000" font-family="sans-serif" font-size="14" lengthAdjust="spacing" textLength="135" x="971.5" y="144.5889">produit_id: integer</text><ellipse cx="962.5" cy="157.5391" fill="#000000" rx="3" ry="3" style="stroke:#000000;stroke-width:1.0;"/><text fill="#000000" font-family="sans-serif" font-size="14" lengthAdjust="spacing" textLength="118" x="971.5" y="160.8857">taille_id: integer</text><line style="stroke:#181818;stroke-width:1.0;" x1="952.5" x2="1111.5" y1="168.1875" y2="168.1875"/></g><!--class messenger_messages--><g id="elem_messenger_messages"><rect codeLine="59" fill="#F1F1F1" height="156.375" id="messenger_messages" rx="2.5" ry="2.5" style="stroke:#181818;stroke-width:0.5;" width="191" x="16.5" y="293.2969"/><text fill="#000000" font-family="sans-serif" font-size="14" lengthAdjust="spacing" textLength="156" x="34" y="311.292">messenger_messages</text><line style="stroke:#181818;stroke-width:0.5;" x1="17.5" x2="206.5" y1="319.5938" y2="319.5938"/><ellipse cx="27.5" cy="333.2422" fill="#000000" rx="3" ry="3" style="stroke:#000000;stroke-width:1.0;"/><text fill="#000000" font-family="sans-serif" font-size="14" lengthAdjust="spacing" textLength="65" x="36.5" y="336.5889">id: bigint</text><line style="stroke:#181818;stroke-width:1.0;" x1="17.5" x2="206.5" y1="343.8906" y2="343.8906"/><ellipse cx="27.5" cy="357.5391" fill="#000000" rx="3" ry="3" style="stroke:#000000;stroke-width:1.0;"/><text fill="#000000" font-family="sans-serif" font-size="14" lengthAdjust="spacing" textLength="76" x="36.5" y="360.8857">body: text</text><ellipse cx="27.5" cy="373.8359" fill="#000000" rx="3" ry="3" style="stroke:#000000;stroke-width:1.0;"/><text fill="#000000" font-family="sans-serif" font-size="14" lengthAdjust="spacing" textLength="97" x="36.5" y="377.1826">headers: text</text><ellipse cx="27.5" cy="390.1328" fill="#000000" rx="3" ry="3" style="stroke:#000000;stroke-width:1.0;"/><text fill="#000000" font-family="sans-serif" font-size="14" lengthAdjust="spacing" textLength="141" x="36.5" y="393.4795">queue_name: string</text><ellipse cx="27.5" cy="406.4297" fill="#000000" rx="3" ry="3" style="stroke:#000000;stroke-width:1.0;"/><text fill="#000000" font-family="sans-serif" font-size="14" lengthAdjust="spacing" textLength="154" x="36.5" y="409.7764">created_at: datetime</text><ellipse cx="27.5" cy="422.7266" fill="#000000" rx="3" ry="3" style="stroke:#000000;stroke-width:1.0;"/><text fill="#000000" font-family="sans-serif" font-size="14" lengthAdjust="spacing" textLength="161" x="36.5" y="426.0732">available_at: datetime</text><text fill="#000000" font-family="sans-serif" font-size="14" lengthAdjust="spacing" textLength="165" x="36.5" y="442.3701">delivered_at: datetime</text></g><!--class taille--><g id="elem_taille"><rect codeLine="69" fill="#F1F1F1" height="74.8906" id="taille" rx="2.5" ry="2.5" style="stroke:#181818;stroke-width:0.5;" width="150" x="1020" y="333.7969"/><text fill="#000000" font-family="sans-serif" font-size="14" lengthAdjust="spacing" textLength="36" x="1077" y="351.792">taille</text><line style="stroke:#181818;stroke-width:0.5;" x1="1021" x2="1169" y1="360.0938" y2="360.0938"/><ellipse cx="1031" cy="373.7422" fill="#000000" rx="3" ry="3" style="stroke:#000000;stroke-width:1.0;"/><text fill="#000000" font-family="sans-serif" font-size="14" lengthAdjust="spacing" textLength="75" x="1040" y="377.0889">id: integer</text><line style="stroke:#181818;stroke-width:1.0;" x1="1021" x2="1169" y1="384.3906" y2="384.3906"/><ellipse cx="1031" cy="398.0391" fill="#000000" rx="3" ry="3" style="stroke:#000000;stroke-width:1.0;"/><text fill="#000000" font-family="sans-serif" font-size="14" lengthAdjust="spacing" textLength="94" x="1040" y="401.3857">valeur: string</text></g><!--link produit_moyen_paiement to moyen_paiement--><g id="link_produit_moyen_paiement_moyen_paiement"><path codeLine="74" d="M540,194.4109 C540,237.7219 540,282.4489 540,325.7379 " fill="none" id="produit_moyen_paiement-moyen_paiement" style="stroke:#181818;stroke-width:1.0;"/><line style="stroke:#181818;stroke-width:1.0;" x1="540" x2="534" y1="184.4109" y2="176.4109"/><line style="stroke:#181818;stroke-width:1.0;" x1="540" x2="546" y1="184.4109" y2="176.4109"/><line style="stroke:#181818;stroke-width:1.0;" x1="540" x2="540" y1="184.4109" y2="176.4109"/><ellipse cx="540" cy="190.4109" fill="none" rx="4" ry="4" style="stroke:#181818;stroke-width:1.0;"/><line style="stroke:#181818;stroke-width:1.0;" x1="544" x2="536" y1="329.7379" y2="329.7379"/><line style="stroke:#181818;stroke-width:1.0;" x1="544" x2="536" y1="326.7379" y2="326.7379"/><line style="stroke:#181818;stroke-width:1.0;" x1="540" x2="540" y1="325.7379" y2="333.7379"/></g><!--link produit_moyen_paiement to produit--><g id="link_produit_moyen_paiement_produit"><path codeLine="75" d="M661.5,194.4109 C661.5,227.9539 661.5,251.9429 661.5,292.8929 " fill="none" id="produit_moyen_paiement-produit" style="stroke:#181818;stroke-width:1.0;"/><line style="stroke:#181818;stroke-width:1.0;" x1="661.5" x2="655.5" y1="184.4109" y2="176.4109"/><line style="stroke:#181818;stroke-width:1.0;" x1="661.5" x2="667.5" y1="184.4109" y2="176.4109"/><line style="stroke:#181818;stroke-width:1.0;" x1="661.5" x2="661.5" y1="184.4109" y2="176.4109"/><ellipse cx="661.5" cy="190.4109" fill="none" rx="4" ry="4" style="stroke:#181818;stroke-width:1.0;"/><line style="stroke:#181818;stroke-width:1.0;" x1="665.5" x2="657.5" y1="296.8929" y2="296.8929"/><line style="stroke:#181818;stroke-width:1.0;" x1="665.5" x2="657.5" y1="293.8929" y2="293.8929"/><line style="stroke:#181818;stroke-width:1.0;" x1="661.5" x2="661.5" y1="292.8929" y2="300.8929"/></g><!--link produit_couleur to couleur--><g id="link_produit_couleur_couleur"><path codeLine="76" d="M867.75,194.4109 C867.75,237.7219 867.75,282.4489 867.75,325.7379 " fill="none" id="produit_couleur-couleur" style="stroke:#181818;stroke-width:1.0;"/><line style="stroke:#181818;stroke-width:1.0;" x1="867.75" x2="861.75" y1="184.4109" y2="176.4109"/><line style="stroke:#181818;stroke-width:1.0;" x1="867.75" x2="873.75" y1="184.4109" y2="176.4109"/><line style="stroke:#181818;stroke-width:1.0;" x1="867.75" x2="867.75" y1="184.4109" y2="176.4109"/><ellipse cx="867.75" cy="190.4109" fill="none" rx="4" ry="4" style="stroke:#181818;stroke-width:1.0;"/><line style="stroke:#181818;stroke-width:1.0;" x1="871.75" x2="863.75" y1="329.7379" y2="329.7379"/><line style="stroke:#181818;stroke-width:1.0;" x1="871.75" x2="863.75" y1="326.7379" y2="326.7379"/><line style="stroke:#181818;stroke-width:1.0;" x1="867.75" x2="867.75" y1="325.7379" y2="333.7379"/></g><!--link produit_couleur to produit--><g id="link_produit_couleur_produit"><path codeLine="77" d="M769.75,194.4109 C769.75,227.9539 769.75,251.9429 769.75,292.8929 " fill="none" id="produit_couleur-produit" style="stroke:#181818;stroke-width:1.0;"/><line style="stroke:#181818;stroke-width:1.0;" x1="769.75" x2="763.75" y1="184.4109" y2="176.4109"/><line style="stroke:#181818;stroke-width:1.0;" x1="769.75" x2="775.75" y1="184.4109" y2="176.4109"/><line style="stroke:#181818;stroke-width:1.0;" x1="769.75" x2="769.75" y1="184.4109" y2="176.4109"/><ellipse cx="769.75" cy="190.4109" fill="none" rx="4" ry="4" style="stroke:#181818;stroke-width:1.0;"/><line style="stroke:#181818;stroke-width:1.0;" x1="773.75" x2="765.75" y1="296.8929" y2="296.8929"/><line style="stroke:#181818;stroke-width:1.0;" x1="773.75" x2="765.75" y1="293.8929" y2="293.8929"/><line style="stroke:#181818;stroke-width:1.0;" x1="769.75" x2="769.75" y1="292.8929" y2="300.8929"/></g><!--link produit_taille to taille--><g id="link_produit_taille_taille"><path codeLine="78" d="M1066.25,194.4109 C1066.25,237.7219 1066.25,282.4489 1066.25,325.7379 " fill="none" id="produit_taille-taille" style="stroke:#181818;stroke-width:1.0;"/><line style="stroke:#181818;stroke-width:1.0;" x1="1066.25" x2="1060.25" y1="184.4109" y2="176.4109"/><line style="stroke:#181818;stroke-width:1.0;" x1="1066.25" x2="1072.25" y1="184.4109" y2="176.4109"/><line style="stroke:#181818;stroke-width:1.0;" x1="1066.25" x2="1066.25" y1="184.4109" y2="176.4109"/><ellipse cx="1066.25" cy="190.4109" fill="none" rx="4" ry="4" style="stroke:#181818;stroke-width:1.0;"/><line style="stroke:#181818;stroke-width:1.0;" x1="1070.25" x2="1062.25" y1="329.7379" y2="329.7379"/><line style="stroke:#181818;stroke-width:1.0;" x1="1070.25" x2="1062.25" y1="326.7379" y2="326.7379"/><line style="stroke:#181818;stroke-width:1.0;" x1="1066.25" x2="1066.25" y1="325.7379" y2="333.7379"/></g><!--link produit_taille to produit--><g id="link_produit_taille_produit"><path codeLine="79" d="M968.25,194.4259 C968.25,247.0609 968.25,318.2969 968.25,318.2969 C968.25,318.2969 879.74,318.2969 808.3,318.2969 " fill="none" id="produit_taille-produit" style="stroke:#181818;stroke-width:1.0;"/><line style="stroke:#181818;stroke-width:1.0;" x1="968.25" x2="962.25" y1="184.4259" y2="176.4259"/><line style="stroke:#181818;stroke-width:1.0;" x1="968.25" x2="974.25" y1="184.4259" y2="176.4259"/><line style="stroke:#181818;stroke-width:1.0;" x1="968.25" x2="968.25" y1="184.4259" y2="176.4259"/><ellipse cx="968.25" cy="190.4259" fill="none" rx="4" ry="4" style="stroke:#181818;stroke-width:1.0;"/><line style="stroke:#181818;stroke-width:1.0;" x1="804.3" x2="804.3" y1="322.2969" y2="314.2969"/><line style="stroke:#181818;stroke-width:1.0;" x1="807.3" x2="807.3" y1="322.2969" y2="314.2969"/><line style="stroke:#181818;stroke-width:1.0;" x1="808.3" x2="800.3" y1="318.2969" y2="318.2969"/></g><!--SRC=[ZLCzZzGm4EtpAqoxqafGq6nB2w91ehGS-oaPy4Um9yj6tFvtnhUvN3PtuQYIcVTcF6_yt9E3GXXuKW6XHIvDNrEMilLeoa-AWyacg2yKFtbJodTotAiF7z-liCyKyMqQeBvcxbF3n1wAIv-6vXtt250wfWZT80esgI4dDnBha2P4FHWIIcJrfpai4BcJeiZea2LxJxm3ZyVc-jJtbNuRwa6TZSUOJwfmfjWzrxfaQmOwK9SDKuhwBDkGRtbiD0TBeJHJkC2E3ASDdvGp3AQ0ftJjKEFdywzR_JQDTPX_29yPkuhN7VvRglMqknu4GtufEQYSFCf9_IWfrY750BzJTYj2J64L3Hdt2TDXhSUuZ5Am8Z0yXbxSyNBEUIMl3xezbovo1R0KZ9VOeTXC0p_U6EF2aalHKpscJQB9L3b2xlRFrIoh42FltywDi6_7AZLALjS_EQeiKbhgfEAcf4rkMeRiOPmuROb_ZHYXemdhdTaCyy9sijopp6DQcUZUZmwUnBxRWcNEbSwtFRJpTg_fU7nusBp0DyWpscoVmmpFuHwyhPvLpEWjsW7dx5y0]--></g></svg>